<svg width="123" height="80" viewBox="0 0 123 80" fill="none" xmlns="http://www.w3.org/2000/svg">
<path d="M8.06501 36.9831H17.0176V30.0282H24.9773V49.9662H17.0176V42.0076H8.06501V49.9662H0.0997314V30.0282H8.06501V36.9831Z" fill="#9D9FA2"/>
<path d="M45.497 45.4657C48.0908 45.4657 49.5912 44.6604 49.5912 42.0903V30.0282H57.5565V42.3992C57.5565 48.7363 53.6854 50.6666 45.497 50.6666C37.3086 50.6666 33.4376 48.7363 33.4376 42.3992V30.0282H41.4028V42.0903C41.4028 44.6604 42.9033 45.4657 45.497 45.4657Z" fill="#9D9FA2"/>
<path d="M73.7465 36.3157L83.2624 37.7056C87.2729 38.2957 89.7607 40.1379 89.7607 43.5132C89.7607 48.3723 85.7502 50.6611 76.7976 50.6611C70.673 50.6611 63.9795 49.8228 63.9516 43.96H73.5513C73.5791 44.6273 73.8301 45.0741 74.3991 45.3829C74.9904 45.6642 75.8605 45.8021 77.1044 45.8021C79.5866 45.8021 80.2671 45.1348 80.2671 44.1861C80.2671 43.6015 79.8989 43.0114 78.828 42.8459L69.736 41.5057C65.8426 40.9155 64.2305 38.6818 64.2305 35.8911C64.2305 30.7287 69.3455 29.3333 75.894 29.3333C84.8744 29.3333 88.5726 31.6498 88.8571 35.869H79.5921C79.5921 35.0582 79.1124 34.5508 78.3762 34.2751C77.6733 33.9717 76.7697 33.8559 75.894 33.8559C73.5178 33.8559 72.7034 34.4405 72.7034 35.2788C72.7034 35.8414 72.9544 36.1999 73.7465 36.3157Z" fill="#9D9FA2"/>
<path d="M105.435 36.9831H114.382V30.0282H122.347V49.9662H114.382V42.0076H105.435V49.9662H97.4694V30.0282H105.435V36.9831Z" fill="#9D9FA2"/>
</svg>
